# xmcd
#
# Track frame offsets: 
#        150
#        19688
#        37516
#        56394
#        75452
#        93430
#        114025
#        130278
#        149231
#        169751
#
# Disc length: 2552 seconds
#
# Revision: 0
# Processed by: cddbd v1.5.2PL0 Copyright (c) Steve Scherf et al.
# Submitted via: ExactAudioCopy v1.0b3
#
DISCID=7309f60a
DTITLE=ต่าย อรทัย - คนในความคิดฮอด
DYEAR=1900
DGENRE=Country
TTITLE0=คนในความคิดฮอด
TTITLE1=เป็นห่วงเด้อจ้า
TTITLE2=ต.จ.ว. มอหก
TTITLE3=เหตุผลที่ทนเจ็บ
TTITLE4=ไม่ใช่บ้านเรา
TTITLE5=สู่ขวัญหัวใจ
TTITLE6=ฮักตลอดคิดฮอดเสมอ
TTITLE7=ตัวช่วยที่บ่ได้เชิญ
TTITLE8=ไหมแท้ที่แม่ทอ
TTITLE9=สาละวัน...อย่าลืมสัญญา
EXTD=
EXTT0=
EXTT1=
EXTT2=
EXTT3=
EXTT4=
EXTT5=
EXTT6=
EXTT7=
EXTT8=
EXTT9=
PLAYORDER=
